<svg xmlns="http://www.w3.org/2000/svg" viewBox="0 0 512 512" width="512" height="512">
  <!-- Background gradient -->
  <defs>
    <linearGradient id="skyGradient" x1="0%" y1="0%" x2="0%" y2="100%">
      <stop offset="0%" style="stop-color:#87CEEB;stop-opacity:1" />
      <stop offset="100%" style="stop-color:#F4D03F;stop-opacity:1" />
    </linearGradient>
    <linearGradient id="sandGradient" x1="0%" y1="0%" x2="0%" y2="100%">
      <stop offset="0%" style="stop-color:#F7DC6F;stop-opacity:1" />
      <stop offset="100%" style="stop-color:#D4AC0D;stop-opacity:1" />
    </linearGradient>
    <linearGradient id="castleGradient" x1="0%" y1="0%" x2="0%" y2="100%">
      <stop offset="0%" style="stop-color:#F8F9FA;stop-opacity:1" />
      <stop offset="100%" style="stop-color:#E9ECEF;stop-opacity:1" />
    </linearGradient>
    <linearGradient id="towerGradient" x1="0%" y1="0%" x2="0%" y2="100%">
      <stop offset="0%" style="stop-color:#FFFFFF;stop-opacity:1" />
      <stop offset="100%" style="stop-color:#F1F3F4;stop-opacity:1" />
    </linearGradient>
  </defs>
  
  <!-- Background -->
  <rect width="512" height="512" fill="url(#skyGradient)" rx="64" ry="64"/>
  
  <!-- Sand base -->
  <path d="M0 400 Q128 380 256 400 Q384 420 512 400 L512 512 L0 512 Z" fill="url(#sandGradient)"/>
  
  <!-- Main castle base -->
  <rect x="156" y="320" width="200" height="80" fill="url(#castleGradient)" rx="8" ry="8"/>
  
  <!-- Castle walls -->
  <rect x="176" y="280" width="160" height="40" fill="url(#castleGradient)" rx="4" ry="4"/>
  
  <!-- Central tower -->
  <rect x="226" y="200" width="60" height="80" fill="url(#towerGradient)" rx="8" ry="8"/>
  
  <!-- Tower top -->
  <rect x="236" y="160" width="40" height="40" fill="url(#towerGradient)" rx="6" ry="6"/>
  
  <!-- Tower flag -->
  <rect x="250" y="140" width="4" height="20" fill="#E74C3C"/>
  <polygon points="254,140 262,148 254,156" fill="#E74C3C"/>
  
  <!-- Side towers -->
  <rect x="186" y="240" width="40" height="40" fill="url(#towerGradient)" rx="6" ry="6"/>
  <rect x="286" y="240" width="40" height="40" fill="url(#towerGradient)" rx="6" ry="6"/>
  
  <!-- Castle windows -->
  <circle cx="256" cy="240" r="8" fill="#87CEEB"/>
  <circle cx="206" cy="260" r="6" fill="#87CEEB"/>
  <circle cx="306" cy="260" r="6" fill="#87CEEB"/>
  
  <!-- Castle door -->
  <rect x="246" y="360" width="20" height="40" fill="#8B4513" rx="2" ry="2"/>
  <circle cx="256" cy="380" r="2" fill="#FFD700"/>
  
  <!-- Decorative elements -->
  <circle cx="176" cy="260" r="3" fill="#FF6B6B"/>
  <circle cx="336" cy="260" r="3" fill="#FF6B6B"/>
  <circle cx="256" cy="220" r="3" fill="#4ECDC4"/>
  
  <!-- Small decorative towers -->
  <rect x="166" y="270" width="20" height="20" fill="url(#towerGradient)" rx="3" ry="3"/>
  <rect x="326" y="270" width="20" height="20" fill="url(#towerGradient)" rx="3" ry="3"/>
  
  <!-- Sun -->
  <circle cx="80" cy="80" r="30" fill="#FFD700"/>
  <g fill="#FFD700">
    <path d="M80 40 L80 50 M80 110 L80 120 M40 80 L50 80 M110 80 L120 80"/>
    <path d="M55 55 L62 62 M98 98 L105 105 M55 105 L62 98 M98 62 L105 55"/>
  </g>
  
  <!-- Clouds -->
  <g fill="#FFFFFF" opacity="0.8">
    <circle cx="400" cy="100" r="15"/>
    <circle cx="420" cy="100" r="20"/>
    <circle cx="440" cy="100" r="15"/>
    <circle cx="380" cy="110" r="12"/>
    <circle cx="460" cy="110" r="12"/>
  </g>
  
  <!-- Ocean waves -->
  <path d="M0 450 Q64 440 128 450 Q192 460 256 450 Q320 440 384 450 Q448 460 512 450 L512 512 L0 512 Z" fill="#3498DB" opacity="0.6"/>
  <path d="M0 470 Q64 460 128 470 Q192 480 256 470 Q320 460 384 470 Q448 480 512 470 L512 512 L0 512 Z" fill="#2980B9" opacity="0.4"/>
</svg> 